<svg xmlns="http://www.w3.org/2000/svg" width="1024" height="960" style="-ms-transform:rotate(360deg);-webkit-transform:rotate(360deg)" transform="rotate(360)"><path d="M960 159H704V97q0-26-12.5-48t-35-35T608 1H416q-40 0-68 28.5T320 97v62H64q-26 0-45 19T0 223v672q0 26 19 45t45 19h896q26 0 45-19t19-45V223q0-17-8.5-31.5T992 168t-32-9zM384 97q0-13 9.5-22.5T416 65h192q14 0 23 9.5t9 22.5v62H384V97zM64 223h896v225H608v-33q0-17-9-32t-23.5-23.5T544 351h-64q-27 0-45.5 19T416 415v33H64V223zm480 353h-64V415h64v161zM64 895V512h352v64q0 27 18.5 45.5T480 640h64q17 0 31.5-8.5T599 608t9-32v-64h352v383H64z" fill="#626262"/><path fill="rgba(0, 0, 0, 0)" d="M0 0h1024v960H0z"/></svg>