<svg xmlns="http://www.w3.org/2000/svg" width="992" height="1024" style="-ms-transform:rotate(360deg);-webkit-transform:rotate(360deg)" transform="rotate(360)"><path d="M256 320H32q-13 0-22.5 9.5T0 352v640q0 13 9.5 22.5T32 1024h224q13 0 22.5-9.5T288 992V352q0-13-9.5-22.5T256 320zm-32 640H64V384h160v576zm384-450H384q-14 0-23 9.5t-9 22.5v450q0 13 9 22.5t23 9.5h224q13 0 22.5-9.5T640 992V542q0-13-9.5-22.5T608 510zm-32 450H416V574h160v386zM960 0H736q-13 0-22.5 9.5T704 32v960q0 13 9.5 22.5t22.5 9.5h224q13 0 22.5-9.5T992 992V32q0-13-9.5-22.5T960 0zm-32 960H768V64h160v896z" fill="#626262"/><path fill="rgba(0, 0, 0, 0)" d="M0 0h992v1024H0z"/></svg>