<svg xmlns="http://www.w3.org/2000/svg" width="1024" height="1024" style="-ms-transform:rotate(360deg);-webkit-transform:rotate(360deg)" transform="rotate(360)"><path d="M934 66q13 0 22 3 2 6 2.5 15t-1 23-11 31-25.5 33L690 402l2 28q4 76 16 260 9 161 10 166 0 6-4 11-7 7-18 20t-24 27q-59-157-98-267l-35-94-71 71-130 125-19 19v25q-1 19 0 90v54l1 1 2 1q-6-10-8-14l-6-9q-58-92-68-109l-9-13-13-9q-68-41-135-84 1 0 2 2l1 1h67.5l9.5.5 10.5.5H231l26-1 18-18 126-130 71-71-94-34q-109-40-269-100 14-14 26.5-25t20.5-17l7-4h2q7 0 180 11 189 13 249 16l29 2 231-231q37-37 80-37zm0-64q-31 0-63.5 13.5T809 58L598 268q-32-2-88.5-5.5t-112.5-7-108-7-85.5-5.5-35.5-2h-5q-6 0-12.5 1t-16.5 5-19 12l-73 66q-19 19-16 41 2 22 26 32 63 25 304 113L230 641h-20q-21 0-66.5-.5T88 640H73.5l-5 .5L62 642l-8 3.5-10 5.5-11.5 7.5L19 669l-3 3Q2 687 1 704t14 29q22 18 170 107 11 18 73 116 28 46 30 49 10 16 29 17h1q18 0 35-17 7-8 12.5-15.5T374 976l5-10 2.5-8.5 1-6.5v-5l-.5-3q1-10 .5-69t.5-79l130-126q23 63 65 177t47 125q9 23 31 26h5q9 0 18.5-4.5T697 980q5-5 13.5-14t26-28.5T763 907q20-24 18-54 0-2-4.5-82t-11-187.5T756 427l211-211q26-27 40.5-57.5T1023 102t-4.5-47-16.5-31Q980 2 934 2z" fill="#626262"/><path fill="rgba(0, 0, 0, 0)" d="M0 0h1024v1024H0z"/></svg>