<svg xmlns="http://www.w3.org/2000/svg" width="150" height="100"><defs><pattern width="150" height="100" id="a" patternContentUnits="userSpaceOnUse" patternUnits="userSpaceOnUse"><g stroke-width="0"><circle cx="5" cy="5" r="3"/><circle cx="20" cy="5" r="3"/><circle cx="35" cy="5" r="3"/><circle cx="50" cy="5" r="3"/><circle cx="65" cy="5" r="3"/><circle cx="80" cy="5" r="3"/><circle cx="95" cy="5" r="3"/><circle cx="110" cy="5" r="3"/><circle cx="125" cy="5" r="3"/><circle cx="140" cy="5" r="3"/></g><g stroke-width="0"><circle cx="5" cy="20" r="3"/><circle cx="20" cy="20" r="3"/><circle cx="35" cy="20" r="3"/><circle cx="50" cy="20" r="3"/><circle cx="65" cy="20" r="3"/><circle cx="80" cy="20" r="3"/><circle cx="95" cy="20" r="3"/><circle cx="110" cy="20" r="3"/><circle cx="125" cy="20" r="3"/><circle cx="140" cy="20" r="3"/></g><g stroke-width="0"><circle cx="5" cy="35" r="3"/><circle cx="20" cy="35" r="3"/><circle cx="35" cy="35" r="3"/><circle cx="50" cy="35" r="3"/><circle cx="65" cy="35" r="3"/><circle cx="80" cy="35" r="3"/><circle cx="95" cy="35" r="3"/><circle cx="110" cy="35" r="3"/><circle cx="125" cy="35" r="3"/><circle cx="140" cy="35" r="3"/></g><g stroke-width="0"><circle cx="5" cy="50" r="3"/><circle cx="20" cy="50" r="3"/><circle cx="35" cy="50" r="3"/><circle cx="50" cy="50" r="3"/><circle cx="65" cy="50" r="3"/><circle cx="80" cy="50" r="3"/><circle cx="95" cy="50" r="3"/><circle cx="110" cy="50" r="3"/><circle cx="125" cy="50" r="3"/><circle cx="140" cy="50" r="3"/></g></pattern></defs><path fill="url(#a)" d="M0 0h150v100H0z"/></svg>