<svg xmlns="http://www.w3.org/2000/svg" width="1024" height="896" style="-ms-transform:rotate(360deg);-webkit-transform:rotate(360deg)" transform="rotate(360)"><path d="M1023 446L905 39q-1-7-6-12.5T888 18t-13-3H139q-7 0-13.5 3t-11 8.5T108 39L1 426q-1 5-.5 10.5T3 447q-3 10-3 18v352q0 26 18.5 45T64 881h896q27 0 45.5-19t18.5-45V460q0-8-1-14zM164 79h686l93 322H645q0 23-6.5 43T620 480t-28 27.5-36.5 17.5-43.5 6q-29 0-53-9.5T417.5 495 390 454t-10-53H74zm796 738H64V465h263q21 61 70 95.5T512 595q44 0 81.5-15.5t64-45T698 465h262v352z" fill="#626262"/><path fill="rgba(0, 0, 0, 0)" d="M0 0h1024v896H0z"/></svg>