<svg version="1.1" id="Camada_1" xmlns="http://www.w3.org/2000/svg" x="0" y="0" viewBox="0 0 286 100" xml:space="preserve"><style>.st3{fill:#bec1ce}.st4{fill:#1c9a9a}</style><path d="M175.29 100H50C22.39 100 0 77.61 0 50S22.39 0 50 0h125.29v100z" opacity=".15" fill="#1c9a9a"/><path class="st3" d="M205.45 49.86h7.4v14.2c-1.9 1.43-4.1 2.53-6.6 3.3s-5.02 1.15-7.55 1.15c-3.63 0-6.9-.77-9.8-2.33-2.9-1.55-5.17-3.7-6.83-6.45-1.65-2.75-2.47-5.86-2.47-9.33 0-3.47.82-6.58 2.47-9.33 1.65-2.75 3.94-4.9 6.88-6.45 2.93-1.55 6.23-2.33 9.9-2.33 3.07 0 5.85.52 8.35 1.55s4.6 2.53 6.3 4.5l-5.2 4.8c-2.5-2.63-5.52-3.95-9.05-3.95-2.23 0-4.22.47-5.95 1.4-1.73.93-3.08 2.25-4.05 3.95-.97 1.7-1.45 3.65-1.45 5.85 0 2.17.48 4.1 1.45 5.8.97 1.7 2.31 3.03 4.02 3.98 1.72.95 3.67 1.43 5.88 1.43 2.33 0 4.43-.5 6.3-1.5V49.86zM247.45 61.41v6.5h-27.1v-35h26.45v6.5h-18.4v7.6h16.25v6.3H228.4v8.1h19.05zM286 32.91v35h-6.65L261.9 46.66v21.25h-8v-35h6.7L278 54.16V32.91h8z"/><path class="st4" d="M98.95 32.91v35H92.3L74.85 46.66v21.25h-8v-35h6.7l17.4 21.25V32.91h8zM134.35 61.41v6.5h-27.1v-35h26.45v6.5h-18.4v7.6h16.25v6.3H115.3v8.1h19.05zM162.5 67.91l-8.45-12.15-8.3 12.15h-9.3l12.95-17.8-12.3-17.2h9.2l8.05 11.35 7.9-11.35H171l-12.2 16.9 13.05 18.1h-9.35z"/></svg>