<svg xmlns="http://www.w3.org/2000/svg" width="1024" height="1040" style="-ms-transform:rotate(360deg);-webkit-transform:rotate(360deg)" transform="rotate(360)"><path d="M815 592h145q26 0 45 19t19 45v320q0 26-19 45t-45 19H640q-26 0-45-19t-19-45V656q0-26 19-45t45-19h113v-38H270v38h114q26 0 45 19t19 45v320q0 26-19 45t-45 19H64q-26 0-45-19T0 976V656q0-26 19-45t45-19h144v-60q0-15 16-24t37-9h220v-36H343q-26 0-45-19t-19-45V79q0-26 19-45t45-19h320q26 0 45 19t19 45v320q0 26-19 45t-45 19H545v37q41 0 108-.5t109-.5q21 0 37 8.5t16 24.5v60zm145 64H640v320h320V656zM663 79H343v320h320V79zM384 656H64v320h320V656z" fill="#626262"/><path fill="rgba(0, 0, 0, 0)" d="M0 0h1024v1040H0z"/></svg>